<?xml version="1.0" encoding="utf-8"?>
<!-- Generator: Adobe Illustrator 25.2.3, SVG Export Plug-In . SVG Version: 6.00 Build 0)  -->
<svg version="1.1" id="Calque_1" xmlns="http://www.w3.org/2000/svg" xmlns:xlink="http://www.w3.org/1999/xlink" x="0px" y="0px"
	 viewBox="0 0 141.7 141.7" style="enable-background:new 0 0 141.7 141.7;" xml:space="preserve">
<style type="text/css">
	.st0{display:none;}
	.st1{display:inline;fill:none;stroke:#544842;stroke-width:4;stroke-linecap:round;stroke-linejoin:round;stroke-miterlimit:10;}
	.st2{display:inline;fill:none;stroke:#544842;stroke-width:2;stroke-linecap:round;stroke-linejoin:round;stroke-miterlimit:10;}
	.st3{display:inline;fill:#544842;}
	.st4{display:inline;fill:none;stroke:#534741;stroke-width:2;stroke-linecap:round;stroke-miterlimit:10;}
	.st5{display:inline;fill:#544842;stroke:#534741;stroke-linecap:round;stroke-linejoin:round;stroke-miterlimit:10;}
	.st6{fill:#FFFFFF;}
	.st7{fill:#FFFFFF;stroke:#FFFFFF;stroke-width:2;stroke-linecap:round;stroke-linejoin:round;stroke-miterlimit:10;}
	.st8{fill:#FFFFFF;stroke:#FFFFFF;stroke-width:3;stroke-linecap:round;stroke-linejoin:round;stroke-miterlimit:10;}
	.st9{fill:#FFFFFF;stroke:#FFFFFF;stroke-linecap:round;stroke-linejoin:round;stroke-miterlimit:10;}
	.st10{fill:#FFFFFF;stroke:#FFFFFF;stroke-width:2;stroke-miterlimit:10;}
	.st11{display:inline;fill:none;stroke:#534741;stroke-width:4;stroke-linecap:round;stroke-linejoin:round;stroke-miterlimit:10;}
	.st12{display:inline;fill:none;stroke:#534741;stroke-width:2;stroke-linecap:round;stroke-linejoin:round;stroke-miterlimit:10;}
	.st13{display:inline;fill:none;stroke:#534741;stroke-width:2;stroke-miterlimit:10;}
	.st14{display:inline;fill:#534741;}
	.st15{display:inline;}
	.st16{fill:#534741;}
</style>
<g id="Medecine" class="st0">
	<path class="st1" d="M68.8,33.6l60.4,6.1c0,0,12.1,0.2,9,8.9s-10.2,21.6-10.2,21.6s-1.9,5.6-8.6,5.1S8.6,66.2,8.6,66.2
		s-6.5-1.8-3.9-6.1s16.6-20.4,16.6-20.4s3.5-4.6,6.9-4.6"/>
	<path class="st1" d="M123.9,74.6c0,0-4.9,5.8-8.5,6.1c-4,0.3-7.8,1.8-9.7,3.8c-7.2,7.8-18.3,5.5-18.3,5.5s-2.2-0.6-28.8-1.8
		s-29.1-8.4-29.1-8.4s-4-4.7-7.6-5.2S9.8,73,8.7,70.4s-4.2-6.9-4.2-6.9"/>
	<path class="st2" d="M73.7,40.5l44.8,4.3c0,0,5.2-0.2,6.2,2.4s-2.3,11-2.3,11"/>
	<path class="st2" d="M116.8,64.5c0,0-1.1,4.7-3.3,5.6S30.2,63,30.2,63"/>
	<path class="st2" d="M21.6,60.9c0,0-2.4-1.4-1.7-3.8s3.9-9.8,7.8-11.9"/>
	<path class="st2" d="M32.4,55.2l0.8-29.4c0,0,2.3-12.6,17.1-11.8s15.2,12.7,15.2,12.7l-1.3,29.8c0,0-5.6,5.4-16.8,4.3
		S32.4,55.2,32.4,55.2z"/>
	<path class="st3" d="M78.6,53.5c0.7-0.8,1.1-1.9,1.1-3.1c0-2.8-2.5-5-5.5-5s-5.5,2.3-5.5,5c0,2.6,2.1,4.7,4.9,5
		c0,0.2-0.1,0.4-0.1,0.6c0,1.8,1.4,3.3,3.1,3.3c1.7,0,3.1-1.5,3.1-3.3C79.8,55,79.3,54.1,78.6,53.5z"/>
	<ellipse class="st3" cx="86.4" cy="62.3" rx="4.7" ry="3.3"/>
	<path class="st3" d="M104.5,53.4c-0.3,0-0.5,0-0.8,0.1c-0.2-2.8-2.6-5-5.4-5c-3,0-5.4,2.4-5.4,5.4c0,1.3,0.5,2.6,1.3,3.5
		c-0.8,0.5-1.3,1.4-1.3,2.3c0,1.6,1.4,2.9,3.2,2.9s3.2-1.3,3.2-2.9c0-0.2,0-0.3-0.1-0.5c0.7-0.1,1.3-0.3,1.8-0.7
		c0.7,1,2,1.7,3.4,1.7c2.2,0,4-1.5,4-3.5C108.5,55,106.7,53.4,104.5,53.4z"/>
	<ellipse class="st3" cx="89.8" cy="55.8" rx="1.3" ry="1.3"/>
</g>
<g id="Balance" class="st0">
	<circle class="st3" cx="68.2" cy="36.6" r="5.5"/>
	<path class="st3" d="M62.5,41.2H15.1c0,0-0.9-1.2,0-1.4s46.5-7.5,46.5-7.5s1.4-0.3,1.5,0.4c0.1,0.7-1.8,1.4-1.7,4.4
		C61.4,40.2,64,41.2,62.5,41.2z"/>
	<path class="st3" d="M74.3,41.2h47.5c0,0,0.9-1.2,0-1.4s-46.5-7.5-46.5-7.5s-1.4-0.3-1.5,0.4c-0.1,0.7,1.8,1.4,1.7,4.4
		C75.4,40.2,72.9,41.2,74.3,41.2z"/>
	<path class="st3" d="M101.3,116.8c-2.5-0.7-15.1-1.7-18.1-4.8s-8-13.8-9.4-18.8l0,0V42.3c0,0-3,2-5.5,1.9s-5.1-1.9-5.1-1.9v50.9
		c-1.5,4.9-6.4,15.7-9.4,18.8s-15.6,4.1-18.1,4.8s-0.7,2.4-0.7,2.4h28.2h1.3h8h1.3H102C102,119.2,103.8,117.4,101.3,116.8z"/>
	<path class="st3" d="M1,82.5h34.7c0,0-6.4,7.7-17.1,7.6S1,82.8,1,82.8"/>
	<circle class="st3" cx="18.3" cy="46.6" r="2.3"/>
	<line class="st4" x1="16.7" y1="47.5" x2="2.2" y2="82.5"/>
	<line class="st4" x1="19.8" y1="47.5" x2="34.3" y2="82.5"/>
	<path class="st3" d="M103.4,82.5h34.7c0,0-6.4,7.7-17.1,7.6s-17.6-7.2-17.6-7.2"/>
	<circle class="st3" cx="120.7" cy="46.6" r="2.3"/>
	<line class="st4" x1="119.1" y1="47.5" x2="104.7" y2="82.5"/>
	<line class="st4" x1="122.2" y1="47.5" x2="136.7" y2="82.5"/>
	<path class="st5" d="M68.2,16.7l2.8,6.9l2.8,6.9c0,0-3.7-1.1-5.8-1.1c-2.1,0-5.2,1.1-5.2,1.1l2.8-6.9L68.2,16.7z"/>
</g>
<g id="Balance_2">
	<path class="st6" d="M64.5,62.3v50.9c-1.5,4.9-6.4,15.7-9.4,18.8s-15.6,4.1-18.1,4.8s-0.7,2.4-0.7,2.4h28.2h1.3h8h1.3h28.2
		c0,0,1.8-1.8-0.7-2.4s-15.1-1.7-18.1-4.8s-8-13.8-9.4-18.8l0,0V62.3H64.5z"/>
	<rect x="32" y="40.2" class="st6" width="26.1" height="5.6"/>
	<rect x="85" y="40.2" class="st6" width="26.1" height="5.6"/>
	<g>
		<polyline class="st7" points="118.1,45.4 23.2,45.4 23.2,40.2 118.1,40.2 118.1,45.1 		"/>
		<path class="st7" d="M118.2,40.3l2.5-1.4l6.6-3.8c0,0,2.4,4,2.4,7.7c0,3.6-2.4,7.7-2.4,7.7l-6.6-3.8l-2.5-1.5"/>
		<path class="st7" d="M23.7,40.3l-2.5-1.4L14.6,35c0,0-2.4,4-2.4,7.7c0,3.6,2.4,7.7,2.4,7.7l6.6-3.8l2.5-1.5"/>
		<path class="st7" d="M140.2,102.4c0,1.1-0.9,2.1-2.1,2.1h-25.9c-1.1,0-2.1-0.9-2.1-2.1l0,0c0-1.1,0.9-2.1,2.1-2.1h25.9
			C139.3,100.3,140.2,101.2,140.2,102.4L140.2,102.4z"/>
		<line class="st7" x1="138.2" y1="100.3" x2="125.2" y2="52.4"/>
		<line class="st7" x1="112.2" y1="100.3" x2="125.2" y2="52.4"/>
		<path class="st7" d="M32.2,102.4c0,1.1-0.9,2.1-2.1,2.1H4.2c-1.1,0-2.1-0.9-2.1-2.1l0,0c0-1.1,0.9-2.1,2.1-2.1h25.9
			C31.3,100.3,32.2,101.2,32.2,102.4L32.2,102.4z"/>
		<line class="st7" x1="30.2" y1="100.3" x2="17.2" y2="52.4"/>
		<line class="st7" x1="4.2" y1="100.3" x2="17.2" y2="52.4"/>
		<path class="st6" d="M68.5,39.5c0,0-0.6-13.4,2.2-13.5s2.7,13.5,2.7,13.5h3.5l-1.2-11.9c0,0-1.5-5.5,0.8-6.2s2.7-1.2,2.7-1.2
			s-1.7-3.1-2.6-3.8s-6.3,0.9-7.4,1.6s-2.6,1.2-2.8,2.1s1,3.9,0.7,4.6S63.5,38,63.3,39.2S68.5,39.5,68.5,39.5z"/>
		<path class="st8" d="M72.9,17.9c0,0-1-8.1-2.3-10.2c-1.5-2.5-6.2-6.3-11.2-4.9"/>
		<path class="st9" d="M60.2,2.5c0,0,5,3.5,5.5,6.6s-0.2,6.9,0.8,6.8s5.7-1.1,5.7-1.1"/>
	</g>
	<line class="st10" x1="74.2" y1="64" x2="74.2" y2="40.2"/>
	<line class="st10" x1="65.5" y1="64.3" x2="65.5" y2="40.5"/>
	<path class="st10" d="M77.7,20.2c0,0,1.3,3.7,1.8,4.3c0.9,1,1,2.6,0.8,3.1s-3.4,2.9-5.6,1.7"/>
</g>
<g id="Calque_5" class="st0">
	<path class="st3" d="M98.1,26c0,0-6.3-17.8-7.7-21.6S85,1.5,85,1.5H72.5c0,0-4-0.8-5.4,2.9S59.4,26,59.4,26s-1.4,2,0.5,4.6
		s3.3,4.3,4.5,6.9s1.9,16.2,1.9,16.2h9.3c0,0,1-9.2-0.4-16.5S73,28.8,72.1,28s-1.2-1-2.4-1.2s-3.6-0.8-4.1-1.9s-1.6-3.1-1.4-4.8
		s0.7-4.1,1.6-4.1s1.6,0.8,1.6,0.8s6.5-2.1,11.2-2.2c0.1,0,0.1,0,0.2,0c0.1,0,0.1,0,0.2,0c4.7,0.1,11.2,2.2,11.2,2.2
		s0.7-0.8,1.6-0.8s1.4,2.4,1.6,4.1s-1,3.8-1.4,4.8s-3,1.7-4.1,1.9s-1.5,0.3-2.4,1.2s-1.7,1.9-3.1,9.2s-0.4,16.5-0.4,16.5h9.3
		c0,0,0.6-13.5,1.9-16.2s2.7-4.3,4.5-6.9S98.1,26,98.1,26z"/>
	<path class="st11" d="M93.4,34.1c0,0,3.6,0.1,4.8,2.6s1.1,15,0.4,21.3s-7.8,16.4-8.2,19.7s2.8,11.2,2.8,17.2s-6.3,17.2-6.3,19.6
		s3.6,15.1,3.6,15.1H76.7"/>
	<path class="st11" d="M63.3,34.1c0,0-3.6,0.1-4.8,2.6s-1.1,15-0.4,21.3s7.8,16.4,8.2,19.7s-2.8,11.2-2.8,17.2s6.3,17.2,6.3,19.6
		s-3.6,15.1-3.6,15.1h13.8"/>
	<path class="st11" d="M97.4,134.5c0-2.7-1.5-4.8-3.3-4.8H63.4c-1.8,0-3.3,2.2-3.3,4.8l0,0c0,2.7,1.5,4.8,3.3,4.8h30.7
		C95.9,139.4,97.4,137.2,97.4,134.5L97.4,134.5z"/>
	<path class="st12" d="M83,63.1c0-3-2.1-5.5-4.6-5.5l0,0c-2.5,0-4.6,2.5-4.6,5.5v54.5c0,3,2.1,5.5,4.6,5.5l0,0
		c2.5,0,4.6-2.5,4.6-5.5V63.1z"/>
	<path class="st13" d="M57.7,44.4c0,0,3.6,11.8,20.7,11.8c16.9,0,21.2-11.8,21.2-11.8"/>
</g>
<g id="Livre_des_mort_2" class="st0">
	<path class="st11" d="M91.1,33.9c0,0,5.9,0.3,7.1,2.8s1.1,15,0.4,21.3s-7.8,16.4-8.2,19.7s2.8,11.2,2.8,17.2s-6.3,17.2-6.3,19.6
		s3.6,15.1,3.6,15.1H76.7"/>
	<path class="st11" d="M64.6,34c0,0-4.8,0.2-6,2.6s-1.1,15-0.4,21.3s7.8,16.4,8.2,19.7s-2.8,11.2-2.8,17.2s6.3,17.2,6.3,19.6
		s-3.6,15.1-3.6,15.1h13.8"/>
	<path class="st11" d="M97.4,134.5c0-2.7-1.5-4.8-3.3-4.8H63.4c-1.8,0-3.3,2.2-3.3,4.8l0,0c0,2.7,1.5,4.8,3.3,4.8h30.7
		C95.9,139.4,97.4,137.2,97.4,134.5L97.4,134.5z"/>
	<path class="st14" d="M81.2,35c0.2-0.8,0.3-1.6,0-1.8s-0.4-1.2-3.2-1.2c0,0,0,0,0,0.1c0-0.1,0-0.1,0-0.1c-2.8,0-2.9,1-3.2,1.2
		s-0.2,1.1,0,1.8s1.4,4.8,1.5,6.5s-0.4,8-0.6,8.5s1,1.7,2.2,1.8c0,0,0,0,0,0s0,0,0,0c1.3-0.1,2.4-1.3,2.2-1.8s-0.7-6.8-0.6-8.5
		S81,35.8,81.2,35z"/>
	<path class="st4" d="M70.9,19c0,0-2.1-1.4-3.5-0.8S65,23.4,67,25.1s3.4,1.5,3.7,1.7s2.1,6.9,4.7,7.5"/>
	<circle class="st4" cx="70.3" cy="56.2" r="4.1"/>
	<circle class="st4" cx="87.3" cy="56.2" r="4.1"/>
	<path class="st14" d="M59.9,44.9c0,0,1.7-4.4,3.8-5.2s4.9-1.1,5.4-0.7s0.4,1.3,0,1.5s-4.8,2.7-5.9,4.4s-1.5,3-1.8,4.2
		s-0.5,2.1-0.7,2.1S59.1,48,59.9,44.9z"/>
	<g class="st15">
		<path class="st16" d="M84.4,47.2c-0.3,0-0.5-0.1-0.7-0.3c-0.2-0.2-0.3-0.4-0.3-0.7l0-15.5c0-0.6,0.4-1,1-1c0,0,0,0,0,0
			c0.6,0,1-0.5,1,0l0.1,15.5l3.9-0.2l-0.7-19l2.5-4.6l-2.8-3.3c-0.2-1.3-1-4.6-1.9-6.1c-0.9-1.3-4.7-2.4-8.8-2.6
			c-3.4-0.1-7.4,2.4-7.8,3c-0.8,1.2-1.4,3.4-1.9,5.7c0,0.3-1.9,2-2.1,3.4c-0.1,1.1,1.2,2.4,1.1,4.6l0.1,8.9c0,0.6-0.4,1-1,1
			c0,0,0,0,0,0c-0.5,0-1-0.4-1-1l-0.1-9c0-0.5,0.6-10.9,3.2-14.8c0.9-1.4,5.7-4,9.6-3.9c3.1,0.1,8.8,1,10.4,3.5
			c1.3,2.1,2.2,6.7,2.2,6.9c0,0,0,0.1,0,0.1l0.9,3.4L90.6,25l0.8,20.9c0,0.5-0.4,1-0.9,1L84.4,47.2C84.4,47.2,84.4,47.2,84.4,47.2z"
			/>
	</g>
	<polyline class="st12" points="73.2,32.3 73.8,46.5 66.5,46.7 66,34.3 	"/>
	<path class="st12" d="M70.9,19c0,0,3.3-2.1,7.5-2.2s7.1,2.2,7.1,2.2s2.1-1.4,3.5-0.8s2.4,5.2,0.4,6.9s-3.4,1.5-3.7,1.7
		s-2.1,6.9-4.7,7.5"/>
	<g class="st15">
		<path class="st16" d="M72.6,59.9l1,2.5c0.2,0.5-0.1,1.1-0.6,1.3c-0.1,0-0.2,0.1-0.4,0.1c-0.4,0-0.8-0.2-0.9-0.6l-1-2.6L72.6,59.9z
			"/>
		<path class="st16" d="M67.8,52.9l-5.3-13.7c-0.2-0.5,0.1-1.1,0.6-1.3c0.5-0.2,1.1,0.1,1.3,0.6l5.3,13.8L67.8,52.9z"/>
	</g>
	<g class="st15">
		<path class="st16" d="M90,60l-1.5,5.6c-0.1,0.4-0.5,0.7-1,0.7c-0.1,0-0.2,0-0.3,0c-0.5-0.1-0.8-0.7-0.7-1.2l1.2-4.6L90,60z"/>
		<path class="st16" d="M89.7,53.1l4-14.8c0.1-0.5,0.7-0.8,1.2-0.7c0.5,0.1,0.8,0.7,0.7,1.2l-4.2,15.7L89.7,53.1z"/>
	</g>
	<g class="st15">
		<path class="st16" d="M87.7,60.2l-1.2,4.4c-0.1,0.4-0.5,0.7-1,0.7c-0.1,0-0.2,0-0.3,0c-0.5-0.1-0.8-0.7-0.7-1.2l1.1-4L87.7,60.2z"
			/>
		<path class="st16" d="M87.8,52l4-14.7c0.1-0.5,0.7-0.8,1.2-0.7c0.5,0.1,0.8,0.7,0.7,1.2l-4,14.9L87.8,52z"/>
	</g>
	<g class="st15">
		<path class="st16" d="M92.1,50.4c-0.3,0-0.6-0.1-0.8-0.4c-0.4-0.4-0.3-1.1,0.1-1.4l3.6-3c0.4-0.4,1.1-0.3,1.4,0.1
			c0.4,0.4,0.3,1.1-0.1,1.4l-3.6,3C92.5,50.3,92.3,50.4,92.1,50.4z"/>
	</g>
</g>
<g id="Calque_1_1_" class="st0">
	
		<image style="display:inline;overflow:visible;opacity:0.4;enable-background:new    ;" width="216" height="144" xlink:href="CC7170C5.jpeg"  transform="matrix(1.2544 -1.984444e-02 1.984444e-02 1.2544 -110.6445 -78.6598)">
	</image>
	
		<image style="display:inline;overflow:visible;opacity:0.5;enable-background:new    ;" width="1467" height="978" xlink:href="CC7170C7.jpeg"  transform="matrix(0.1133 0 0 0.1133 5.416 19.4509)">
	</image>
	
		<image style="display:inline;overflow:visible;opacity:0.5;enable-background:new    ;" width="1128" height="1128" xlink:href="CC7170C5.jpeg"  transform="matrix(0.1548 -4.200000e-03 4.200000e-03 0.1548 -17.7993 -4.8794)">
	</image>
</g>
</svg>
